<svg version="1.1" xmlns="http://www.w3.org/2000/svg" viewBox="0 0 125.91780217404266 230.3496658285967" width="377.753406522128" height="691.0489974857901">
  <!-- svg-source:excalidraw -->
  
  <defs>
    <style>
      @font-face {
        font-family: "Virgil";
        src: url("https://excalidraw.com/Virgil.woff2");
      }
      @font-face {
        font-family: "Cascadia";
        src: url("https://excalidraw.com/Cascadia.woff2");
      }
    </style>
  </defs>
  <g stroke-linecap="round"><g transform="translate(16.55034113760712 5.633793265289569) rotate(354.53130373090164 47.13022434493212 57.36724608157647)"><path d="M0.94 0.84 C16.26 19.77, 76.65 95.87, 92.04 114.51 M-0.03 0.23 C15.65 18.76, 78.83 94.01, 94.29 112.89" stroke="#000000" stroke-width="4" fill="none"></path></g></g><g stroke-linecap="round"><g transform="translate(15.964112633865852 111.35755867746002) rotate(264.35619727109486 46.80098641566616 56.425946938114976)"><path d="M-0.44 -0.02 C15.04 18.89, 78.65 95.02, 94.05 113.92 M1.52 -1.07 C16.85 17.41, 78.22 92.71, 93.69 112" stroke="#000000" stroke-width="4" fill="none"></path></g></g><g stroke-linecap="round"><g transform="translate(7.906914454084017 13.527229810014433) rotate(365.00778421396825 40.86421701951042 48.492460821093346)"><path d="M-0.15 0.69 C13.63 16.5, 69.52 79.79, 83.42 95.56 M-1.69 0 C11.94 15.95, 68.81 80.92, 82.89 96.98" stroke="#000000" stroke-width="4" fill="none"></path></g></g><g stroke-linecap="round"><g transform="translate(17.913863488151833 221.62308145804582) rotate(365.00778421396825 30.91207655127232 -54.04282716890839)"><path d="M-1.67 -0.16 C8.98 -18.32, 52.81 -90.52, 63.49 -107.93 M2.62 -2.71 C13.18 -20.59, 52.92 -87.21, 62.74 -104.92" stroke="#000000" stroke-width="4" fill="none"></path></g></g></svg>